<svg width="44" height="93" viewBox="0 0 44 93" fill="none" xmlns="http://www.w3.org/2000/svg">
<g clip-path="url(#clip0_444_1931)">
<path d="M15.7498 42.8333H28.2498C38.6665 42.8333 42.8332 38.6666 42.8332 28.25V15.75C42.8332 5.33329 38.6665 1.16663 28.2498 1.16663H15.7498C5.33317 1.16663 1.1665 5.33329 1.1665 15.75V28.25C1.1665 38.6666 5.33317 42.8333 15.7498 42.8333Z" fill="#9E9E9E" fill-opacity="0.3" stroke="white" stroke-width="1.5" stroke-linecap="round" stroke-linejoin="round"/>
<path d="M15 25.3333L22.3542 18L29.7083 25.3333" stroke="white" stroke-width="1.5" stroke-linecap="round" stroke-linejoin="round"/>
</g>
<g clip-path="url(#clip1_444_1931)">
<path d="M15.7498 91.8333H28.2498C38.6665 91.8333 42.8332 87.6666 42.8332 77.25V64.75C42.8332 54.3333 38.6665 50.1666 28.2498 50.1666H15.7498C5.33317 50.1666 1.1665 54.3333 1.1665 64.75V77.25C1.1665 87.6666 5.33317 91.8333 15.7498 91.8333Z" fill="#9E9E9E" fill-opacity="0.3" stroke="white" stroke-width="1.5" stroke-linecap="round" stroke-linejoin="round"/>
<path d="M14.646 68.1666L22.0002 75.5L29.3543 68.1666" stroke="white" stroke-width="1.5" stroke-linecap="round" stroke-linejoin="round"/>
</g>
<defs>
<clipPath id="clip0_444_1931">
<rect width="44" height="44" fill="white"/>
</clipPath>
<clipPath id="clip1_444_1931">
<rect width="44" height="44" fill="white" transform="translate(0 49)"/>
</clipPath>
</defs>
</svg>
